<?xml version="1.0" standalone="no"?>
<!DOCTYPE svg PUBLIC "-//W3C//DTD SVG 20010904//EN"
 "http://www.w3.org/TR/2001/REC-SVG-20010904/DTD/svg10.dtd">
<svg version="1.0" xmlns="http://www.w3.org/2000/svg"
 width="78.000000pt" height="78.000000pt" viewBox="0 0 78.000000 78.000000"
 preserveAspectRatio="xMidYMid meet">

<g transform="translate(0.000000,78.000000) scale(0.100000,-0.100000)"
fill="#000000" stroke="none">
<path d="M515 710 c-3 -5 -1 -10 4 -10 6 0 11 5 11 10 0 6 -2 10 -4 10 -3 0
-8 -4 -11 -10z"/>
<path d="M536 694 c-4 -9 -4 -19 -1 -22 2 -3 7 3 11 12 4 9 4 19 1 22 -2 3 -7
-3 -11 -12z"/>
<path d="M570 690 c0 -5 5 -10 11 -10 5 0 7 5 4 10 -3 6 -8 10 -11 10 -2 0 -4
-4 -4 -10z"/>
<path d="M375 680 c-33 -5 -72 -13 -87 -19 -17 -6 -29 -7 -33 -1 -9 15 -22 12
-29 -6 -5 -13 -4 -14 7 -6 11 9 13 6 9 -18 -3 -19 -10 -30 -21 -30 -9 0 -26
-3 -38 -6 -19 -5 -23 -2 -23 14 0 12 10 28 22 36 12 9 18 16 13 17 -6 0 -18 2
-27 4 -9 2 -27 -9 -40 -23 -13 -15 -16 -21 -7 -14 14 10 18 10 23 -4 4 -10 1
-22 -5 -28 -9 -8 -11 -7 -6 5 4 12 0 15 -20 11 -40 -8 -54 -55 -52 -180 2
-105 17 -161 39 -147 6 4 10 -1 10 -10 0 -10 -5 -14 -12 -10 -7 4 -6 1 2 -7 9
-7 24 -34 33 -59 14 -37 28 -53 68 -78 73 -45 101 -38 90 23 -1 4 11 5 26 1
42 -11 114 -6 137 11 29 20 34 18 38 -13 3 -24 7 -28 32 -26 41 3 113 76 127
128 6 22 14 45 19 50 29 39 30 210 0 299 -10 31 -70 97 -70 77 0 -4 -11 -6
-25 -3 -19 3 -25 0 -25 -14 -1 -17 -2 -17 -19 3 -10 12 -21 19 -25 16 -10 -10
-7 -25 3 -18 5 3 12 1 16 -5 3 -5 -2 -10 -13 -10 -24 0 -32 -8 -26 -25 4 -9
16 -12 40 -8 21 4 34 2 34 -5 0 -6 6 -9 14 -6 14 5 27 -23 29 -66 1 -21 -4
-25 -33 -28 -19 -2 -41 -8 -47 -14 -7 -6 -19 -8 -28 -5 -8 4 -18 1 -22 -6 -5
-7 -10 14 -14 48 -4 44 -2 62 8 68 18 11 16 27 -2 27 -18 0 -20 26 -2 33 7 3
5 6 -5 6 -11 1 -15 6 -12 16 4 8 2 14 -2 14 -5 -1 -36 -5 -69 -9z m-12 -27
c-7 -2 -19 -2 -25 0 -7 3 -2 5 12 5 14 0 19 -2 13 -5z m227 -8 c9 -11 16 -12
25 -5 9 8 15 8 20 0 3 -5 -1 -10 -10 -10 -12 0 -15 -6 -10 -22 4 -18 2 -16
-11 6 -11 20 -18 25 -24 17 -5 -9 -9 -6 -13 8 -6 25 5 27 23 6z m-233 -9 c12
4 10 0 -6 -12 -23 -17 -23 -18 -5 -25 14 -6 11 -8 -15 -8 -33 -1 -34 0 -15 13
10 8 16 18 12 22 -4 4 -14 1 -23 -6 -10 -8 -15 -9 -15 -1 0 6 5 11 11 11 5 0
7 5 3 11 -5 8 -1 8 14 0 11 -6 29 -8 39 -5z m-235 -68 c-9 -9 -12 -7 -12 12 0
19 3 21 12 12 9 -9 9 -15 0 -24z m-22 -25 c0 -32 -12 -23 -16 12 -1 14 2 23 7
20 5 -4 9 -18 9 -32z m144 26 c2 -2 6 -29 9 -59 l6 -55 -68 -3 -68 -3 -6 31
c-4 19 0 42 11 64 16 31 20 33 65 31 26 -1 49 -4 51 -6z m114 -9 l26 0 -21
-15 c-14 -10 -20 -21 -16 -32 5 -11 3 -14 -6 -8 -10 6 -11 3 -2 -13 9 -17 7
-20 -14 -24 -21 -5 -26 0 -35 31 -13 48 -13 51 6 51 9 0 12 5 8 12 -5 8 -2 9
10 5 10 -4 30 -7 44 -7z m-261 -102 c-3 -7 -5 -2 -5 12 0 14 2 19 5 13 2 -7 2
-19 0 -25z m534 -77 c-21 -29 -41 -45 -26 -20 4 6 -2 5 -14 -3 -16 -10 -23
-10 -33 0 -14 14 -58 16 -58 3 0 -5 6 -12 13 -15 6 -3 1 -4 -13 -3 -22 2 -25
7 -28 42 -3 35 0 41 18 41 11 0 20 -3 20 -7 0 -4 16 -3 35 1 20 5 33 4 29 -1
-3 -5 -12 -9 -20 -9 -8 0 -12 -4 -9 -10 8 -13 46 -13 43 -1 -2 5 6 16 17 25
17 12 22 13 34 1 11 -11 10 -18 -8 -44z m-258 35 c17 -18 10 -76 -9 -76 -10 0
-14 13 -14 45 0 49 2 52 23 31z m-103 -56 c0 -24 -6 -39 -20 -48 -22 -13 -27
-3 -8 16 22 22 -14 14 -38 -9 -18 -17 -26 -19 -43 -10 -15 9 -21 9 -21 1 0
-25 -18 2 -22 33 -3 30 -1 33 19 29 13 -2 20 -8 17 -13 -3 -5 4 -9 15 -9 11 0
23 5 27 12 5 8 2 9 -9 5 -10 -3 -17 -2 -17 3 0 9 22 14 43 11 4 0 7 4 7 10 0
8 5 8 15 -1 13 -10 15 -9 15 11 0 19 2 21 10 9 5 -8 10 -31 10 -50z m50 -4
l-22 -21 7 25 c9 28 28 45 34 29 2 -6 -7 -21 -19 -33z m-220 24 c0 -5 -4 -10
-10 -10 -5 0 -10 5 -10 10 0 6 5 10 10 10 6 0 10 -4 10 -10z m467 -62 c-3 -8
-6 -5 -6 6 -1 11 2 17 5 13 3 -3 4 -12 1 -19z m-17 -28 c10 -18 8 -19 -30 -17
-23 1 -40 7 -40 14 0 7 6 10 14 7 8 -3 17 -1 21 5 10 17 23 13 35 -9z m-188
-5 c0 -5 -5 -11 -11 -13 -6 -2 -11 4 -11 13 0 9 5 15 11 13 6 -2 11 -8 11 -13z
m-112 -13 c7 2 15 -3 17 -9 3 -8 -5 -13 -21 -13 -14 0 -26 2 -26 4 0 2 -3 13
-7 23 -6 15 -4 16 9 5 9 -7 21 -11 28 -10z m-113 -24 c-3 -8 -6 -5 -6 6 -1 11
2 17 5 13 3 -3 4 -12 1 -19z m282 8 c-2 -2 -22 -6 -44 -10 -29 -5 -36 -4 -25
3 13 10 79 16 69 7z m109 -13 c-10 -2 -26 -2 -35 0 -10 3 -2 5 17 5 19 0 27
-2 18 -5z m-248 -23 c0 -5 -12 -10 -27 -9 -25 0 -26 1 -8 9 27 12 35 12 35 0z
m110 -29 c0 -15 -16 -22 -34 -15 -25 9 -19 24 9 24 14 0 25 -4 25 -9z m178
-20 c3 -8 -1 -12 -9 -9 -7 2 -15 10 -17 17 -3 8 1 12 9 9 7 -2 15 -10 17 -17z
m-288 -21 c0 -5 -9 -10 -20 -10 -11 0 -20 5 -20 10 0 6 9 10 20 10 11 0 20 -4
20 -10z"/>
<path d="M175 620 c-3 -5 3 -10 14 -10 11 0 23 5 26 10 3 6 -3 10 -14 10 -11
0 -23 -4 -26 -10z"/>
<path d="M497 533 c-4 -3 -7 -15 -7 -25 0 -18 1 -18 26 -2 19 13 22 19 12 25
-16 11 -23 11 -31 2z"/>
</g>
</svg>
