<?xml version="1.0" standalone="no"?>
<!DOCTYPE svg PUBLIC "-//W3C//DTD SVG 20010904//EN"
 "http://www.w3.org/TR/2001/REC-SVG-20010904/DTD/svg10.dtd">
<svg version="1.0" xmlns="http://www.w3.org/2000/svg"
 width="640.000000pt" height="640.000000pt" viewBox="0 0 640.000000 640.000000"
 preserveAspectRatio="xMidYMid meet">

<g transform="translate(0.000000,640.000000) scale(0.100000,-0.100000)"
fill="#000000" stroke="none">
<path d="M3287 5094 c-11 -11 4 -33 19 -27 8 3 35 2 60 -2 33 -5 48 -12 51
-25 6 -23 60 -31 232 -33 89 -2 126 -6 129 -14 2 -7 13 -13 24 -13 11 0 22 -8
25 -19 3 -14 17 -22 45 -26 27 -5 42 -13 45 -25 4 -13 19 -19 63 -24 44 -5 59
-11 63 -25 3 -12 18 -20 46 -25 32 -5 41 -11 41 -26 0 -15 7 -20 26 -20 21 0
25 -4 22 -22 -3 -24 -12 -25 -87 -12 -25 4 -31 8 -21 14 21 13 -34 32 -79 28
-29 -2 -37 -8 -39 -25 -2 -15 -10 -23 -23 -23 -12 0 -19 -7 -19 -20 0 -14 -7
-20 -21 -20 -12 0 -23 -8 -26 -19 -3 -11 -17 -21 -35 -25 -37 -7 -48 -1 -48
26 0 18 -4 20 -31 14 -17 -3 -35 -6 -40 -6 -5 0 -9 -9 -9 -20 0 -12 -9 -22
-24 -26 -27 -6 -39 -45 -29 -94 5 -27 9 -30 46 -30 26 0 44 6 53 18 13 16 15
16 29 -3 21 -27 15 -58 -12 -70 -13 -5 -23 -12 -23 -15 0 -3 10 -10 23 -15 12
-6 22 -17 22 -25 0 -10 20 -19 60 -28 33 -7 63 -19 67 -26 4 -7 35 -16 68 -20
50 -6 60 -10 60 -26 0 -11 6 -20 14 -20 7 0 19 -7 26 -15 10 -12 0 -15 -77
-17 -80 -3 -89 -5 -98 -25 -5 -13 -16 -23 -23 -23 -8 0 -16 -9 -19 -20 -3 -12
-14 -20 -29 -21 -13 -1 -28 -3 -34 -4 -5 -1 -31 -3 -56 -4 -36 -1 -47 -5 -51
-20 -3 -14 -17 -21 -49 -26 -29 -4 -44 -11 -44 -21 0 -8 -11 -19 -25 -24 -14
-5 -25 -17 -25 -25 0 -11 -9 -15 -32 -15 -18 0 -56 -2 -85 -6 -29 -3 -72 -3
-97 0 -42 7 -45 9 -51 46 -4 21 -13 41 -21 44 -9 3 -14 20 -14 45 0 30 4 40
20 44 16 4 20 14 20 51 0 30 5 48 15 54 22 12 30 73 12 96 -14 19 -15 17 -22
-22 -7 -41 -8 -42 -45 -42 -21 0 -42 5 -46 12 -4 6 -9 66 -10 132 -1 67 -3
129 -3 139 -1 9 -7 17 -14 17 -17 0 -24 -125 -8 -135 15 -9 -10 -45 -30 -45
-11 0 -18 -10 -20 -27 -6 -39 4 -94 16 -93 6 0 11 -8 13 -18 2 -14 -5 -21 -27
-25 -42 -9 -91 2 -91 19 0 8 -11 19 -25 24 -21 8 -25 16 -25 51 0 32 4 42 20
46 27 7 29 79 3 99 -16 12 -16 13 9 14 17 0 28 -6 31 -17 2 -10 7 5 11 32 12
85 16 95 34 95 13 0 14 2 4 9 -11 7 -10 9 3 14 13 6 15 21 13 94 l-3 88 -37 0
c-21 0 -38 -4 -37 -9 1 -13 -29 -28 -41 -21 -6 3 -10 12 -10 19 0 8 -13 16
-30 20 -17 3 -30 12 -30 21 0 8 -12 17 -27 21 -56 12 -64 16 -60 27 2 7 22 13
44 15 32 2 44 -1 56 -18 11 -16 22 -20 53 -16 21 3 40 10 42 15 2 6 19 13 39
17 37 7 53 28 34 47 -11 11 -232 13 -251 2 -6 -3 -10 -15 -10 -27 0 -18 -4
-19 -37 -13 -46 8 -53 12 -53 31 0 22 -37 17 -43 -6 -8 -32 -34 -24 -41 14 -6
32 -27 52 -40 39 -3 -4 -6 -24 -6 -45 0 -40 -6 -43 -67 -38 -17 1 -23 -4 -23
-18 0 -14 -10 -21 -42 -28 -27 -6 -44 -15 -46 -26 -2 -12 2 -15 16 -11 12 3
22 -2 26 -12 10 -26 -2 -35 -45 -35 -32 0 -39 3 -39 20 0 17 -7 20 -45 20 -38
0 -45 -3 -45 -19 0 -13 -8 -21 -22 -23 -13 -2 -24 -11 -26 -20 -5 -27 44 -24
51 2 3 11 12 20 21 20 9 0 16 -8 16 -20 0 -15 7 -20 24 -20 18 0 25 -6 28 -22
2 -19 10 -23 43 -26 95 -5 123 -12 121 -30 -1 -12 8 -18 27 -20 15 -2 27 -9
27 -15 0 -17 -16 -39 -26 -37 -5 1 -10 -4 -13 -11 -2 -8 2 -10 12 -6 9 3 17 1
19 -4 3 -9 19 -15 49 -18 4 -1 9 -10 12 -21 3 -11 12 -20 21 -20 10 0 16 -9
16 -22 0 -22 20 -64 20 -44 0 23 29 -32 30 -56 0 -14 5 -28 10 -30 15 -5 18
-60 4 -65 -6 -2 -14 5 -17 17 -3 12 -13 20 -25 20 -14 0 -22 8 -24 23 -2 17
-10 23 -38 25 -19 2 -41 10 -47 19 -10 13 -42 18 -145 24 -170 10 -249 3 -256
-23 -2 -10 -13 -18 -24 -18 -11 0 -22 -9 -25 -20 -3 -11 -14 -20 -24 -20 -12
0 -19 -7 -19 -20 0 -13 -10 -24 -25 -30 -14 -5 -25 -16 -25 -25 0 -8 -9 -15
-20 -15 -11 0 -20 4 -20 8 0 5 -18 15 -39 22 -50 16 -118 6 -140 -21 -14 -17
-21 -19 -44 -10 -21 8 -29 7 -39 -5 -7 -8 -21 -23 -31 -33 -17 -17 -18 -35
-15 -184 3 -141 6 -168 20 -179 9 -7 18 -22 20 -33 5 -28 42 -27 46 1 2 12 12
24 23 27 14 4 19 14 19 40 0 45 -18 57 -40 27 -29 -39 -50 -20 -50 46 0 47 3
57 19 61 11 3 21 15 23 27 2 13 11 22 26 24 25 4 31 37 7 46 -25 9 -17 23 15
28 32 5 42 -7 13 -15 -14 -4 -12 -5 5 -6 12 0 23 -5 23 -11 1 -5 2 -16 3 -22
2 -22 31 -19 41 4 6 13 17 23 25 23 10 0 18 16 24 43 9 43 9 43 50 40 32 -2
41 -7 40 -20 0 -10 -1 -49 -2 -88 -2 -55 -5 -70 -17 -70 -8 0 -15 -9 -15 -20
0 -11 5 -19 12 -17 7 1 17 -8 22 -20 5 -11 27 -27 48 -34 34 -11 38 -16 38
-46 0 -38 -23 -45 -40 -13 -9 17 -21 20 -84 20 -40 0 -88 -3 -105 -6 -29 -6
-31 -9 -31 -49 0 -33 4 -44 18 -47 38 -10 39 -205 1 -215 -11 -3 -20 -19 -24
-44 -4 -21 -10 -41 -14 -43 -10 -6 -33 9 -30 20 1 5 -1 21 -5 37 -9 29 -39 38
-34 10 2 -15 -5 -18 -42 -18 l-45 0 -3 -66 c-3 -60 -1 -67 18 -72 15 -4 20
-13 20 -41 0 -27 6 -40 25 -52 19 -12 25 -25 25 -50 0 -27 4 -34 20 -34 11 0
20 -3 21 -7 4 -50 11 -70 29 -82 11 -7 20 -21 20 -30 0 -9 9 -24 20 -34 11 -9
20 -29 20 -43 0 -17 6 -28 20 -31 14 -4 22 -17 26 -43 4 -26 12 -40 25 -43 27
-7 25 -47 -1 -47 -20 0 -20 -5 -18 -127 2 -98 6 -127 16 -125 14 2 18 -6 26
-59 4 -25 13 -38 25 -42 11 -2 21 -15 23 -28 1 -13 10 -24 18 -24 15 0 17 -4
19 -55 1 -23 6 -30 20 -30 16 0 21 -9 26 -52 3 -29 5 -69 3 -88 -5 -77 2 -130
17 -130 8 0 19 -9 26 -21 9 -17 17 -20 46 -14 20 3 43 13 51 22 22 21 151 13
164 -11 7 -12 24 -16 69 -16 52 0 62 -3 66 -19 4 -16 18 -20 89 -26 47 -4 90
-13 97 -19 16 -15 58 -14 75 2 7 6 25 12 40 12 57 0 100 12 105 30 9 35 125
35 134 -1 4 -13 19 -20 49 -25 26 -4 44 -12 44 -19 0 -8 17 -16 40 -20 51 -9
120 3 120 20 0 7 16 16 35 19 20 4 35 13 35 21 0 8 14 17 34 20 21 4 36 14 39
25 3 12 18 20 45 25 28 4 42 12 45 26 4 15 14 19 45 19 31 0 41 4 45 20 3 12
14 20 26 20 13 0 25 9 30 22 5 13 11 22 15 21 3 -2 19 0 36 3 21 5 30 12 30
25 0 16 8 19 41 19 32 0 42 4 46 20 4 14 17 21 49 26 34 5 44 11 44 25 0 13 7
19 23 19 25 0 50 13 47 25 -1 4 11 16 27 26 15 10 24 19 18 19 -5 0 -4 5 3 12
7 7 12 22 12 35 0 16 6 23 20 23 17 0 20 7 20 48 0 60 9 92 25 92 7 0 15 9 18
20 3 11 14 20 25 20 11 0 22 9 25 20 3 12 14 20 26 20 14 0 21 6 21 20 0 13 7
20 20 20 13 0 20 7 20 20 0 12 10 24 24 30 22 8 25 16 31 94 4 47 11 86 16 86
5 0 9 18 9 40 0 22 -4 40 -10 40 -15 0 -12 37 4 43 8 3 17 23 21 45 4 26 13
42 24 45 18 4 31 50 31 108 0 15 7 29 15 33 11 4 15 21 15 67 0 52 3 62 20 66
17 5 20 15 22 72 3 101 -1 135 -16 146 -34 26 -31 169 5 178 13 3 19 14 19 31
0 14 9 35 21 47 15 15 19 30 17 62 -3 48 -28 59 -38 17 -5 -19 -12 -24 -31
-22 -13 1 -61 4 -107 5 -71 2 -86 -1 -97 -16 -13 -18 -13 -18 -18 0 -4 15 -5
14 -6 -4 -1 -24 -37 -41 -53 -25 -16 16 -2 40 24 44 13 2 23 10 23 18 0 9 11
16 30 18 75 6 95 13 95 31 0 22 -41 31 -142 31 -43 0 -68 4 -68 11 0 6 7 9 15
5 18 -6 28 26 23 75 -2 27 -8 35 -26 37 -19 3 -23 8 -18 25 3 12 6 27 6 33 0
7 9 14 19 17 16 4 20 15 23 53 4 64 29 68 41 6 4 -23 13 -40 18 -37 10 7 15
-4 23 -56 5 -25 13 -38 26 -42 12 -3 20 -14 20 -26 0 -14 6 -21 19 -21 14 0
21 -8 23 -27 2 -20 9 -29 26 -31 12 -2 22 -10 22 -18 0 -8 7 -14 15 -14 8 0
15 9 15 20 0 11 -7 20 -15 20 -12 0 -15 19 -15 111 0 100 -2 111 -19 116 -13
3 -21 17 -25 45 -5 27 -12 42 -25 45 -12 3 -21 17 -26 39 -3 20 -12 34 -21 34
-8 0 -17 13 -20 30 -5 21 -12 30 -25 30 -13 0 -19 7 -19 21 0 12 -8 23 -20 26
-11 3 -20 12 -20 19 0 8 -11 19 -24 23 -13 5 -26 19 -29 30 -3 12 -12 21 -20
21 -8 0 -17 9 -20 20 -3 12 -14 20 -26 20 -14 0 -21 6 -21 19 0 11 -9 21 -24
25 -13 3 -26 15 -29 26 -4 15 -13 20 -37 20 -23 0 -33 5 -37 19 -3 12 -17 21
-37 25 -17 3 -39 15 -49 26 -14 17 -50 26 -80 21 -5 -1 -11 7 -14 18 -4 17
-18 20 -146 25 -78 4 -175 5 -215 4 -61 -3 -75 0 -83 15 -8 13 -23 17 -73 17
-34 0 -65 -3 -69 -6z m-698 -170 c17 -4 31 -12 31 -19 0 -7 -14 -15 -31 -19
-51 -10 -59 -8 -59 19 0 27 8 29 59 19z m205 -81 c10 -62 7 -93 -8 -93 -43 0
-76 14 -76 31 0 12 -7 19 -20 19 -11 0 -20 7 -20 15 0 8 9 15 19 15 11 0 22 4
26 10 3 5 13 6 21 3 10 -4 17 2 21 16 9 34 30 24 37 -16z m43 -116 c-6 -20
-27 -19 -27 2 0 14 5 19 15 14 9 -3 14 -10 12 -16z m1383 -2 c0 -8 -9 -15 -20
-15 -11 0 -20 7 -20 15 0 8 9 15 20 15 11 0 20 -7 20 -15z m-401 -114 c19 -12
4 -51 -20 -51 -13 0 -19 7 -19 23 0 35 13 44 39 28z m179 -70 c2 -13 1 -38 -2
-56 -5 -26 -12 -34 -35 -37 -35 -5 -51 0 -51 17 0 7 -9 15 -20 18 -15 4 -20
14 -20 39 0 19 3 38 7 42 4 4 32 6 63 4 49 -3 55 -5 58 -27z m-173 -31 c3 -5
-1 -10 -9 -10 -9 0 -16 5 -16 10 0 6 4 10 9 10 6 0 13 -4 16 -10z m-1341 -139
c4 -5 24 -12 45 -16 40 -7 51 -22 51 -71 0 -13 8 -24 20 -27 11 -3 20 -12 20
-21 0 -11 -14 -17 -50 -22 -40 -5 -50 -10 -50 -25 0 -14 -7 -19 -29 -19 -50 0
-91 -12 -91 -27 0 -11 17 -13 88 -11 52 2 86 7 84 13 -2 6 7 12 20 15 13 3 27
16 33 28 6 13 19 23 32 23 13 1 28 3 33 4 6 1 21 3 35 4 18 1 25 7 25 21 0 11
-7 20 -15 20 -8 0 -15 9 -15 19 0 23 39 35 81 26 22 -5 29 -12 29 -31 0 -13
-6 -24 -12 -24 -10 0 -9 -3 1 -9 10 -6 4 -12 -23 -22 -35 -13 -50 -39 -21 -39
15 0 42 -39 28 -41 -4 0 2 -4 13 -9 28 -11 37 -62 28 -147 -4 -45 -12 -70 -25
-81 -11 -9 -19 -29 -19 -44 0 -15 -9 -35 -19 -45 -13 -12 -21 -37 -24 -73 -6
-76 -11 -91 -30 -102 -9 -5 -17 -18 -17 -28 0 -13 -7 -20 -19 -20 -13 0 -20
-10 -24 -37 -6 -38 7 -68 25 -57 6 4 8 -2 6 -12 -2 -11 -9 -18 -16 -17 -6 2
-14 -8 -17 -20 -5 -20 -17 -26 -71 -37 l-64 -14 0 -38 c0 -26 -4 -38 -14 -38
-15 0 -27 -37 -28 -88 -1 -33 -7 -35 -145 -48 -49 -5 -74 -11 -77 -21 -4 -10
-17 -14 -38 -12 -18 2 -63 -1 -99 -5 -37 -4 -80 -5 -97 -1 -26 5 -31 12 -37
46 -4 24 -12 39 -21 39 -20 0 -26 20 -15 55 5 17 10 23 10 15 2 -30 21 13 21
48 0 22 -5 32 -15 32 -25 0 -17 17 13 26 15 4 30 7 35 6 4 -1 7 6 7 17 0 15
10 20 46 26 33 5 48 12 51 25 3 10 17 20 34 24 17 3 29 12 29 21 0 11 -12 15
-50 15 -43 0 -50 -3 -50 -20 0 -16 -7 -20 -32 -21 -18 -1 -39 -1 -46 0 -8 1
-16 -7 -19 -18 -12 -46 -43 -13 -43 47 0 16 6 22 20 22 14 0 20 6 18 18 -2 14
6 18 46 20 38 3 49 7 53 23 5 18 13 19 92 17 58 -2 85 -7 84 -14 -3 -13 62
-28 77 -19 17 10 11 37 -9 42 -11 3 -21 13 -24 24 -4 14 -14 19 -44 19 -56 0
-80 9 -86 32 -5 17 -11 20 -38 14 -17 -3 -47 -6 -65 -6 -24 0 -34 -5 -34 -15
0 -8 -8 -15 -19 -15 -13 0 -20 9 -23 30 -5 32 5 55 22 55 6 0 14 6 19 13 5 8
40 16 92 20 82 7 83 7 92 38 11 39 -9 144 -28 144 -16 0 -27 56 -19 98 5 22
12 32 25 32 11 0 19 -7 19 -15 0 -11 12 -15 45 -15 38 0 45 3 45 19 0 12 -8
21 -22 23 -20 3 -21 8 -19 83 4 122 28 130 33 10 3 -52 6 -60 23 -60 18 0 20
8 23 88 l3 87 44 12 c25 7 45 16 45 20 0 11 38 10 44 -1z m226 -46 c0 -18 -5
-25 -19 -25 -11 0 -23 5 -26 10 -11 18 3 40 25 40 15 0 20 -7 20 -25z m1704
-484 c10 -15 -21 -21 -104 -21 -72 0 -108 11 -78 23 23 9 177 7 182 -2z m-286
-75 c-2 -15 -7 -28 -12 -29 -11 -2 -19 42 -11 62 9 23 27 -3 23 -33z m315 -26
c3 -12 14 -20 26 -20 15 0 21 -6 21 -21 0 -19 -4 -21 -31 -15 -17 3 -38 6 -45
6 -8 0 -14 9 -14 20 0 13 -7 20 -20 20 -15 0 -20 -7 -21 -27 0 -25 -16 -78
-18 -62 -1 4 -18 1 -38 -7 -21 -7 -37 -18 -35 -23 1 -7 -15 -11 -38 -11 -29 0
-40 4 -40 15 0 8 7 15 15 15 8 0 15 9 15 20 0 13 10 24 25 30 14 5 25 16 25
24 0 9 16 16 44 20 24 4 47 13 50 21 3 9 19 15 40 15 25 0 35 -5 39 -20z
m-210 -246 c22 -4 37 -12 37 -20 0 -8 9 -14 20 -14 11 0 20 6 20 14 0 22 16
28 54 21 22 -5 36 -14 39 -26 3 -11 14 -19 25 -19 15 0 21 -9 27 -36 3 -20 2
-41 -3 -46 -13 -13 -123 10 -137 27 -5 7 -19 15 -30 17 -11 2 -21 12 -23 25
-3 20 -7 21 -56 16 -53 -6 -67 1 -72 35 -2 13 37 16 99 6z m-2333 -59 c0 -8
-7 -15 -15 -15 -8 0 -15 7 -15 15 0 8 7 15 15 15 8 0 15 -7 15 -15z m1752 -71
c23 -4 38 -12 40 -22 3 -16 31 -20 210 -26 43 -1 81 -5 84 -9 4 -4 1 -14 -7
-23 -12 -15 -12 -18 0 -22 8 -3 9 -7 3 -11 -17 -11 -25 -51 -10 -51 44 0 100
-63 81 -93 -9 -15 -74 1 -90 23 -8 11 -23 20 -34 20 -10 0 -19 7 -19 15 0 9
-14 17 -40 21 -25 4 -41 13 -45 24 -4 12 -20 21 -43 25 -25 4 -41 13 -47 28
-9 20 -16 22 -80 19 -85 -4 -105 -9 -105 -28 0 -8 -7 -14 -15 -14 -9 0 -20
-11 -25 -25 -7 -20 -16 -25 -42 -25 -56 0 -74 10 -87 46 -7 19 -19 34 -27 34
-8 0 -20 13 -25 30 -6 16 -15 27 -20 24 -5 -3 -9 4 -9 15 0 20 8 23 95 35 34
4 201 -2 257 -10z m435 -24 c3 -11 12 -20 19 -20 8 0 19 -11 24 -25 5 -14 16
-25 25 -25 11 0 15 -10 15 -35 0 -38 -14 -47 -23 -15 -3 11 -14 20 -25 20 -11
0 -22 9 -25 21 -3 11 -15 23 -26 26 -16 4 -21 13 -21 39 0 38 28 49 37 14z
m-736 -250 c11 0 18 -4 14 -10 -3 -5 3 -18 15 -30 12 -12 15 -20 8 -20 -7 0
-5 -5 5 -11 9 -5 17 -18 17 -27 0 -10 6 -24 12 -30 7 -7 11 -28 10 -46 -3 -27
1 -34 17 -39 12 -3 21 -12 21 -20 0 -9 14 -17 38 -22 20 -3 44 -15 52 -26 12
-15 33 -20 118 -25 l102 -7 0 -37 c0 -34 -3 -38 -32 -42 -47 -7 -148 6 -157
21 -7 10 -102 30 -148 31 -7 0 -13 7 -13 15 0 8 -11 17 -25 21 -14 3 -25 13
-25 21 0 8 -9 17 -20 20 -11 3 -23 16 -26 29 -3 13 -12 24 -20 24 -15 0 -16 7
-18 130 -1 86 0 93 21 86 8 -3 24 -6 34 -6z m334 -35 c0 -30 -4 -41 -18 -43
-12 -3 -20 4 -24 17 -3 12 -11 21 -19 21 -17 0 -27 17 -20 36 4 11 17 14 43
12 37 -3 38 -4 38 -43z m-175 20 c0 -8 -9 -15 -20 -15 -11 0 -20 7 -20 15 0 8
9 15 20 15 11 0 20 -7 20 -15z m-275 -90 c0 -53 -3 -69 -13 -67 -8 1 -16 -7
-19 -18 -3 -11 -14 -20 -24 -20 -13 0 -19 11 -25 45 -5 35 -10 45 -25 45 -21
0 -22 3 -13 48 7 33 24 41 84 38 l35 -2 0 -69z m746 -115 c11 0 19 -11 23 -32
8 -47 -9 -309 -21 -317 -5 -3 -16 -34 -23 -68 l-13 -63 -39 0 c-31 0 -39 3
-35 14 6 16 -13 25 -61 30 -15 2 -27 7 -27 12 0 18 -17 34 -34 34 -10 0 -21 8
-24 19 -3 12 -17 21 -41 25 -45 9 -47 32 -3 39 44 7 87 -2 87 -19 0 -20 17
-26 58 -19 35 6 37 8 40 46 2 34 -1 42 -18 46 -26 7 -25 16 3 28 12 6 23 20
25 33 2 12 9 22 16 22 10 0 15 27 21 91 6 87 8 91 28 85 12 -3 29 -6 38 -6z
m-1141 -20 c0 -14 7 -20 21 -20 21 0 69 -42 69 -60 0 -5 18 -19 39 -30 23 -11
45 -32 52 -50 8 -16 19 -30 25 -30 17 0 22 -20 16 -58 l-4 -33 -56 3 c-43 2
-56 7 -60 21 -2 10 -14 17 -28 17 -12 0 -26 5 -29 10 -4 6 -10 8 -14 5 -10 -5
-33 103 -26 116 10 16 -7 89 -21 89 -8 0 -14 9 -14 20 0 11 7 20 15 20 8 0 15
-9 15 -20z m-10 -130 c0 -5 -4 -10 -10 -10 -5 0 -10 5 -10 10 0 6 5 10 10 10
6 0 10 -4 10 -10z m-580 -180 c0 -5 -4 -10 -10 -10 -5 0 -10 5 -10 10 0 6 5
10 10 10 6 0 10 -4 10 -10z m1340 -61 c0 -21 -4 -28 -12 -24 -7 4 -4 -1 6 -9
11 -9 39 -16 63 -16 l43 0 0 -45 c0 -44 0 -45 -34 -45 -59 0 -92 11 -101 33
-8 17 -19 22 -49 22 -45 0 -60 21 -22 31 16 4 26 13 26 24 0 11 10 20 25 24
14 4 25 13 25 21 0 8 7 15 15 15 10 0 15 -10 15 -31z m-226 -120 c-3 -5 -10
-7 -15 -3 -5 3 -7 10 -3 15 3 5 10 7 15 3 5 -3 7 -10 3 -15z m82 -29 c14 0 23
-4 19 -9 -9 -15 -66 -24 -77 -13 -14 14 0 35 19 28 8 -3 26 -6 39 -6z m73 -36
c21 -5 31 -12 31 -25 0 -21 -3 -22 -49 -13 -21 5 -31 12 -31 25 0 21 3 22 49
13z"/>
<path d="M2896 2681 c-3 -5 1 -11 9 -15 8 -3 15 -1 15 4 0 13 -18 22 -24 11z"/>
<path d="M3193 5040 c-3 -11 -12 -20 -19 -20 -19 0 -18 -36 2 -44 10 -4 18 1
21 13 3 11 15 21 27 23 13 2 22 11 24 26 3 18 -1 22 -23 22 -18 0 -29 -6 -32
-20z"/>
<path d="M3120 5041 c0 -6 9 -9 20 -8 11 1 20 5 20 9 0 4 -9 8 -20 8 -11 0
-20 -4 -20 -9z"/>
<path d="M3115 4950 c-3 -5 3 -10 14 -10 12 0 21 5 21 10 0 6 -6 10 -14 10 -8
0 -18 -4 -21 -10z"/>
<path d="M3041 4454 c0 -11 3 -14 6 -6 3 7 2 16 -1 19 -3 4 -6 -2 -5 -13z"/>
<path d="M4587 4164 c-14 -15 -6 -34 14 -34 14 0 19 5 17 17 -3 18 -20 27 -31
17z"/>
</g>
</svg>
